# xmcd CD database file
#
# Track frame offsets:
#	150
#	39773
#	122211
#	174129
#	252857
#	267583
#	274560
#	283465
#	288637
#	292791
#	302371
#	308933
#
# Disc length: 4285 seconds
#
# Revision: 0
# Processed by: cddbd v1.5.1PL2 Copyright (c) Steve Scherf et al.
# Submitted via: CDex 1.51
#
DISCID=ad10bb0c
DTITLE=池田秀一・加藤精三 - 対決２ ［池田秀一VS加藤精三］
DYEAR=2006
DGENRE=Vocal
TTITLE0=出征
TTITLE1=若き日の思ひ出
TTITLE2=南方にて
TTITLE3=封じ手
TTITLE4=大局
TTITLE5=応援メッセージ 池田Ver
TTITLE6=応援メッセージ 加藤Ver
TTITLE7=愛情と友情のメッセージ 池田Ver
TTITLE8=愛情と友情のメッセージ 加藤Ver
TTITLE9=電話メッセージ
TTITLE10=若者たちへ・アニキとオヤジの教え
TTITLE11=「君死にたもうことなかれ」
EXTD=YEAR: 2006.1.3
EXTT0=
EXTT1=
EXTT2=
EXTT3=
EXTT4=
EXTT5=
EXTT6=
EXTT7=
EXTT8=
EXTT9=
EXTT10=
EXTT11=
PLAYORDER=
